<?xml version="1.0" encoding="iso-8859-1"?>
<!-- Generator: Adobe Illustrator 22.1.0, SVG Export Plug-In . SVG Version: 6.00 Build 0)  -->
<svg version="1.1" id="Layer_1" xmlns="http://www.w3.org/2000/svg" xmlns:xlink="http://www.w3.org/1999/xlink" x="0px" y="0px"
	 viewBox="0 0 48 48" style="enable-background:new 0 0 48 48;" xml:space="preserve">
<rect x="22.75" y="1" style="fill:#78909C;" width="1.5" height="9"/>
<rect x="19" y="4.75" style="fill:#78909C;" width="9" height="1.5"/>
<rect x="40.75" y="19" style="fill:#5C6BC0;" width="1.5" height="9"/>
<rect x="37" y="22.75" style="fill:#5C6BC0;" width="9" height="1.5"/>
<rect x="4.75" y="19" style="fill:#78909C;" width="1.5" height="9"/>
<rect x="1" y="22.75" style="fill:#78909C;" width="9" height="1.5"/>
<rect x="22.75" y="37" style="fill:#5C6BC0;" width="1.5" height="9"/>
<rect x="19" y="40.75" style="fill:#5C6BC0;" width="9" height="1.5"/>
<rect x="15" y="22" style="fill:#E8762D;" width="17" height="3"/>
<rect x="22" y="15" style="fill:#E8762D;" width="3" height="17"/>
<rect x="11" y="6" style="fill:#FFA000;" width="2" height="14"/>
<rect x="5" y="12" style="fill:#FFA000;" width="14" height="2"/>
<rect x="34" y="6" style="fill:#607D8B;" width="2" height="14"/>
<rect x="28" y="12" style="fill:#607D8B;" width="14" height="2"/>
<rect x="11" y="27" style="fill:#C62828;" width="2" height="14"/>
<rect x="5" y="33" style="fill:#C62828;" width="14" height="2"/>
<rect x="34" y="27" style="fill:#0D47A1;" width="2" height="14"/>
<rect x="28" y="33" style="fill:#0D47A1;" width="14" height="2"/>
</svg>